<svg xmlns="http://www.w3.org/2000/svg" width="701.75" height="396.68" viewBox="0 0 701.75 396.68"><defs><style>.cls-1{fill:#e0edf3;}.cls-2{fill:#f2f2f2;}.cls-3{fill:#e73a77;}.cls-4{fill:#373b54;}.cls-5{fill:#fec630;}.cls-6{fill:#46c0d1;}.cls-11,.cls-7{fill:none;stroke-miterlimit:10;stroke-width:3px;}.cls-7{stroke:#fff;stroke-linecap:round;}.cls-8{fill:#494f70;}.cls-9{fill:#fff;}.cls-10{fill:#ff9a30;}.cls-11{stroke:#373b54;}.cls-12{fill:#71fffe;}</style></defs><g id="OBJECTS"><ellipse class="cls-1" cx="350.88" cy="369.59" rx="350.88" ry="27.09"/><path class="cls-2" d="M186.86,378.9c-4,0-117.85-47.84-93-142.88C119,140.24,242.33,92.3,350.63,84.38s62.19,102.68,213.51,79.84C671.34,148,667,278,531.78,305.8S186.86,378.9,186.86,378.9Z" transform="translate(-20.9 -35.41)"/><path class="cls-3" d="M132,199.28c2.19.73,226.56,171,226.56,171l16.81-14.62L163.43,167.86Z" transform="translate(-20.9 -35.41)"/><path class="cls-4" d="M163.43,167.86,132,199.28c-25.37,5.42-44.95-8.91-51.3-39.13a79.93,79.93,0,0,1-1.31-8.1c-3.11-27.49,9.26-42.81,9.26-42.81,1.27,15,4.77,23.87,41,16.87a27.94,27.94,0,0,1,3.81-.48C160.94,124.1,163.43,167.86,163.43,167.86Z" transform="translate(-20.9 -35.41)"/><path class="cls-5" d="M133.5,125.63c-2.91,17.6-16.58,34-47.21,28q-3.74-.73-6.9-1.62c-3.11-27.49,9.26-42.81,9.26-42.81,1.27,15,4.77,23.87,41,16.87A27.94,27.94,0,0,1,133.5,125.63Z" transform="translate(-20.9 -35.41)"/><path class="cls-6" d="M330.52,387l-39.31,12.58C224.94,385.91,187.28,350,166.15,317.33l21-24-31.64,5.41c-12.45-25.07-15.32-44.66-15.32-44.66C277.84,228.12,327.38,386.17,330.52,387Z" transform="translate(-20.9 -35.41)"/><path class="cls-6" d="M289.06,257l-39.67-11.44c-95.73-97.27-44.45-204.88-44.45-204.88a153.26,153.26,0,0,1,37.75,22.67c-9.57,12.61-21.7,33.35-4.18,34.4C249.37,98.38,255,89,257.89,78,318.72,146.83,287.27,255,289.06,257Z" transform="translate(-20.9 -35.41)"/><path class="cls-7" d="M164.72,270c1.95,0,40.91,6.49,90.25,63.63" transform="translate(-20.9 -35.41)"/><path class="cls-7" d="M214.07,66.56S216,112,255,187.32" transform="translate(-20.9 -35.41)"/><polygon class="cls-4" points="400.28 361.31 282.11 361.31 296.35 282.7 414.53 282.7 400.28 361.31"/><rect class="cls-8" x="257.24" y="357.59" width="159.92" height="9.44" rx="4.27"/><path class="cls-8" d="M197.77,354.69l38.45-212.2a12.27,12.27,0,0,1,12.07-10.07H569.56a12.26,12.26,0,0,1,12.07,14.45l-38.45,212.2a12.28,12.28,0,0,1-12.07,10.08H209.84A12.27,12.27,0,0,1,197.77,354.69Z" transform="translate(-20.9 -35.41)"/><path class="cls-9" d="M533.86,328H218.64a5.31,5.31,0,0,1-5.21-6.27l32.12-175a5.31,5.31,0,0,1,5.22-4.35H566a5.3,5.3,0,0,1,5.22,6.26l-32.13,175A5.3,5.3,0,0,1,533.86,328Z" transform="translate(-20.9 -35.41)"/><polygon class="cls-6" points="517.58 153.13 247.57 153.13 247.57 134.46 521.84 134.46 517.58 153.13"/><polygon class="cls-5" points="274.39 170.17 238.72 170.17 245.35 134.5 281.02 134.5 274.39 170.17"/><polygon class="cls-10" points="296.49 279.08 364.87 174.72 411.65 279.19 296.49 279.08"/><circle class="cls-3" cx="314.7" cy="218.38" r="37.96"/><polyline class="cls-11" points="235.51 219.28 314.7 219.28 372.76 133.59"/><rect class="cls-4" x="232.29" y="214.26" width="10" height="10"/><rect class="cls-4" x="310.99" y="214.26" width="10" height="10"/><rect class="cls-4" x="368.08" y="128.46" width="10" height="10"/><circle class="cls-6" cx="418.48" cy="209.78" r="11.43"/><path class="cls-6" d="M622,340.22c-8.2,41.46-49.89,76-93,76s-80-25.69-85.4-67.6c-10.22-79,77.48-139.56,125.85-106.85,18.71,12.65-9.4,46.63,16.7,49.07C609.73,293,628.23,308.55,622,340.22Z" transform="translate(-20.9 -35.41)"/><ellipse class="cls-5" cx="509.11" cy="225.78" rx="10" ry="12.32"/><ellipse class="cls-3" cx="470.64" cy="258.87" rx="18.06" ry="16.08"/><ellipse class="cls-4" cx="463.16" cy="316.2" rx="15.67" ry="17.46"/><ellipse class="cls-12" cx="510.34" cy="351.01" rx="15.82" ry="14.76"/><path class="cls-9" d="M600,336.78c0,13.73-13.43,24.86-30,24.86a34.57,34.57,0,0,1-3.83-.21c-9.56-1-17.72-5.75-22.27-12.42A21.54,21.54,0,0,1,540,336.78c0-12.4,10.93-22.68,25.25-24.56a36.57,36.57,0,0,1,4.72-.31c12.2,0,22.71,6.06,27.36,14.75A21.08,21.08,0,0,1,600,336.78Z" transform="translate(-20.9 -35.41)"/><path class="cls-8" d="M643.27,275.5l-45.9,51.16-31.19,34.77c-9.56-1-17.72-5.75-22.27-12.42l21.38-36.79,36.22-62.29Z" transform="translate(-20.9 -35.41)"/><path class="cls-4" d="M669.06,264.76c-9.24,8.88-25.79,10.74-25.79,10.74L601.5,249.92s-11.58-33.77,19.16-41a51.86,51.86,0,0,1,8.5-1.21c25.16-1.62,26.61-22.68,26.61-22.68C688.13,224.51,683.05,251.32,669.06,264.76Z" transform="translate(-20.9 -35.41)"/><path class="cls-3" d="M669.47,264.35c-19.55,2-9.51-31.58-17.57-37.33-9.3-6.64-25,16.73-24.18-1.59.35-8.06-3.09-13.24-7.06-16.51a51.86,51.86,0,0,1,8.5-1.21c25.16-1.62,26.61-22.68,26.61-22.68C688.13,224.51,683.46,250.91,669.47,264.35Z" transform="translate(-20.9 -35.41)"/><circle class="cls-4" cx="457.68" cy="163.39" r="19.91"/><path class="cls-10" d="M523.61,130.79a44.71,44.71,0,0,1-12,30.53,46.19,46.19,0,0,0-8.94,14,42.88,42.88,0,0,0-3.1,13.45c-.07.92-.1,1.86-.1,2.79h-41.6c0-.93,0-1.87-.09-2.79a42.66,42.66,0,0,0-11.6-27,44.81,44.81,0,0,1-12.37-28.57,41.25,41.25,0,0,1,0-4.45,45.15,45.15,0,0,1,44.79-42.94,44.93,44.93,0,0,1,45,44.93Z" transform="translate(-20.9 -35.41)"/><rect class="cls-4" x="437.35" y="156.27" width="41.11" height="12.1"/><rect class="cls-8" x="433.33" y="153.36" width="48.89" height="7.15" rx="3.23"/><rect class="cls-8" x="433.33" y="164.77" width="48.89" height="7.15" rx="3.23"/><path class="cls-5" d="M507.42,118a38.39,38.39,0,0,1-73.59,15.3,41.25,41.25,0,0,1,0-4.45,45.15,45.15,0,0,1,44.79-42.94,44.56,44.56,0,0,1,14.9,2.51A38.3,38.3,0,0,1,507.42,118Z" transform="translate(-20.9 -35.41)"/><polygon class="cls-5" points="455.8 37.53 443.07 9.54 471.06 0 455.8 37.53"/><polygon class="cls-5" points="428.44 45.16 410 31.17 404.27 48.98 428.44 45.16"/><polygon class="cls-5" points="485.44 40.47 507.69 32.56 500.7 21.75 485.44 40.47"/><path class="cls-7" d="M460.32,130.12s.94,15.31,19.69,15.31S503.74,128,492.2,127.3c-9.05-.52-12.82,9.07-12.82,13.44s-.13,40.1-.13,40.1" transform="translate(-20.9 -35.41)"/><path class="cls-10" d="M94.93,350.64H230.15a31,31,0,0,1,31,31h0a31,31,0,0,1-31,31H94.93Z" transform="translate(-20.9 -35.41)"/><path class="cls-9" d="M94.91,402.62v-42H230.15a21,21,0,1,1,0,42Z" transform="translate(-20.9 -35.41)"/><polygon class="cls-3" points="134.31 384.25 121.93 379.5 109.77 384.25 109.77 338.65 134.31 338.65 134.31 384.25"/></g></svg>