<svg xmlns="http://www.w3.org/2000/svg" xmlns:xlink="http://www.w3.org/1999/xlink" width="379.56" height="361.87" viewBox="0 0 379.56 361.87"><defs><style>.cls-1{isolation:isolate;}.cls-2{fill:#ffff83;}.cls-3{fill:url(#linear-gradient);}.cls-4{fill:url(#linear-gradient-2);}.cls-5{fill:url(#linear-gradient-3);}.cls-6{fill:#f5e5a1;}.cls-34,.cls-7{mix-blend-mode:multiply;}.cls-8{fill:#cdcdcd;}.cls-9{fill:#1b1464;}.cls-10{fill:#fff;}.cls-11{fill:url(#linear-gradient-4);}.cls-12{fill:url(#linear-gradient-5);}.cls-13{fill:#d78785;}.cls-14{fill:#ca605d;}.cls-15{fill:#c5514e;}.cls-16{fill:#be3c39;}.cls-17{fill:#b5211e;}.cls-18{fill:url(#linear-gradient-6);}.cls-19{fill:#d793c9;}.cls-20{fill:#ca6ab6;}.cls-21{fill:#c55baf;}.cls-22{fill:#be45a6;}.cls-23{fill:#b5279a;}.cls-24{fill:url(#linear-gradient-7);}.cls-25{fill:#9bc7d7;}.cls-26{fill:#72b1ca;}.cls-27{fill:#63aac5;}.cls-28{fill:#4ca0be;}.cls-29{fill:#2e92b5;}.cls-30{fill:url(#linear-gradient-8);}.cls-31{fill:url(#linear-gradient-9);}.cls-32{fill:url(#linear-gradient-10);}.cls-33{fill:url(#linear-gradient-11);}.cls-34,.cls-69{fill:#e6e6e6;}.cls-35{fill:url(#linear-gradient-12);}.cls-36{fill:url(#linear-gradient-13);}.cls-37{fill:url(#linear-gradient-14);}.cls-38{fill:url(#linear-gradient-15);}.cls-39{fill:url(#linear-gradient-16);}.cls-40{fill:#e47eda;}.cls-41{fill:#3c2bda;}.cls-42{fill:#619ce3;}.cls-43{fill:#ccc;}.cls-44{fill:#4d4d4d;}.cls-45{fill:url(#linear-gradient-17);}.cls-46{fill:#999;}.cls-47{fill:#666;}.cls-48{fill:#f1d34e;}.cls-49{fill:#c85676;}.cls-50{fill:#8043b1;}.cls-51{fill:red;}.cls-52{fill:#ff0;}.cls-53{fill:lime;}.cls-54{fill:aqua;}.cls-55{fill:blue;}.cls-56{fill:#f0f;}.cls-57{fill:#bf272d;}.cls-58{fill:#ef5a24;}.cls-59{fill:#f9ae3b;}.cls-60{fill:#faec21;}.cls-61{fill:#39b34a;}.cls-62{fill:#8ac43f;}.cls-63{fill:#006837;}.cls-64{fill:#00a79b;}.cls-65{fill:#0071ba;}.cls-66{fill:#333;}.cls-67{fill:gray;}.cls-68{fill:#b3b3b3;}.cls-70{fill:#f2f2f2;}.cls-71{fill:#eb1c24;}.cls-72{fill:url(#linear-gradient-18);}.cls-73{fill:url(#linear-gradient-19);}.cls-74{fill:url(#linear-gradient-20);}.cls-75{fill:url(#linear-gradient-21);}.cls-76{fill:url(#linear-gradient-22);}.cls-77{fill:url(#linear-gradient-23);}.cls-78{fill:url(#linear-gradient-24);}.cls-79{fill:url(#linear-gradient-25);}.cls-80{fill:url(#linear-gradient-26);}.cls-81{fill:url(#linear-gradient-27);}.cls-82{fill:url(#linear-gradient-28);}.cls-83{fill:url(#linear-gradient-29);}.cls-84{fill:url(#linear-gradient-30);}.cls-85{fill:#ffb293;}.cls-86{fill:#ffcab5;}.cls-87{fill:url(#linear-gradient-31);}.cls-88{fill:url(#linear-gradient-32);}.cls-89{fill:url(#linear-gradient-33);}.cls-90{fill:url(#linear-gradient-34);}.cls-91{fill:url(#linear-gradient-35);}.cls-92{fill:url(#linear-gradient-36);}.cls-93{fill:url(#linear-gradient-37);}.cls-94{fill:url(#linear-gradient-38);}.cls-95{fill:url(#linear-gradient-39);}.cls-96{fill:url(#linear-gradient-40);}.cls-97{fill:url(#linear-gradient-41);}.cls-98{fill:url(#linear-gradient-42);}.cls-99{fill:url(#linear-gradient-43);}</style><linearGradient id="linear-gradient" x1="195.47" y1="102.15" x2="340.27" y2="102.15" gradientTransform="translate(535.74 204.31) rotate(-180)" gradientUnits="userSpaceOnUse"><stop offset="0" stop-color="#516689"/><stop offset="1" stop-color="#1b1464"/></linearGradient><linearGradient id="linear-gradient-2" x1="254.62" y1="107.5" x2="236.86" y2="-6.42" gradientUnits="userSpaceOnUse"><stop offset="0" stop-color="#72003a"/><stop offset="0.41" stop-color="#ae144f"/><stop offset="0.61" stop-color="#cb1e59"/><stop offset="1" stop-color="#ff306c"/></linearGradient><linearGradient id="linear-gradient-3" x1="145.16" y1="101.02" x2="216.23" y2="13.75" gradientUnits="userSpaceOnUse"><stop offset="0.01" stop-color="#d5d5dc"/><stop offset="0.13" stop-color="#dcdce2"/><stop offset="0.67" stop-color="#f5f5f7"/><stop offset="1" stop-color="#fff"/></linearGradient><linearGradient id="linear-gradient-4" x1="219.71" y1="340.62" x2="270.74" y2="340.62" gradientTransform="matrix(-0.48, 0.88, 0.88, 0.48, 127.51, -264.21)" xlink:href="#linear-gradient-3"/><linearGradient id="linear-gradient-5" x1="234.84" y1="131.95" x2="250.01" y2="131.95" gradientTransform="matrix(1, 0, 0, -1, -13.63, 254.4)" xlink:href="#linear-gradient-3"/><linearGradient id="linear-gradient-6" x1="246.3" y1="126.72" x2="261.47" y2="126.72" gradientTransform="matrix(1, 0, 0, -1, -34.57, 246.42)" xlink:href="#linear-gradient-3"/><linearGradient id="linear-gradient-7" x1="256.08" y1="120.19" x2="271.25" y2="120.19" gradientTransform="matrix(1, 0, 0, -1, -53.75, 238.62)" xlink:href="#linear-gradient-3"/><linearGradient id="linear-gradient-8" x1="195.47" y1="141.84" x2="234.88" y2="141.84" gradientTransform="translate(430.35 283.69) rotate(-180)" xlink:href="#linear-gradient"/><linearGradient id="linear-gradient-9" x1="209.5" y1="74.97" x2="267.87" y2="74.97" gradientTransform="matrix(1, 0, 0, 1, 0, 0)" xlink:href="#linear-gradient"/><linearGradient id="linear-gradient-10" x1="209.5" y1="83.91" x2="267.87" y2="83.91" gradientTransform="matrix(1, 0, 0, 1, 0, 0)" xlink:href="#linear-gradient"/><linearGradient id="linear-gradient-11" x1="209.5" y1="92.89" x2="267.87" y2="92.89" gradientTransform="matrix(1, 0, 0, 1, 0, 0)" xlink:href="#linear-gradient"/><linearGradient id="linear-gradient-12" x1="196.98" y1="177.01" x2="295.56" y2="177.01" gradientTransform="matrix(-1, 0, 0, 1, 412.69, -41.5)" gradientUnits="userSpaceOnUse"><stop offset="0" stop-color="#4e8da1"/><stop offset="0.27" stop-color="#64acc0"/><stop offset="0.55" stop-color="#78c6dc"/><stop offset="0.81" stop-color="#84d6ec"/><stop offset="1" stop-color="#88dcf2"/></linearGradient><linearGradient id="linear-gradient-13" x1="126.42" y1="135.01" x2="204.4" y2="135.01" xlink:href="#linear-gradient-3"/><linearGradient id="linear-gradient-14" x1="265.94" y1="178.1" x2="297.59" y2="178.1" xlink:href="#linear-gradient-12"/><linearGradient id="linear-gradient-15" x1="196.98" y1="198.53" x2="269.39" y2="198.53" xlink:href="#linear-gradient-12"/><linearGradient id="linear-gradient-16" x1="269.39" y1="186.57" x2="303.63" y2="186.57" xlink:href="#linear-gradient-12"/><linearGradient id="linear-gradient-17" x1="127.16" y1="136.01" x2="152.39" y2="136.01" gradientTransform="matrix(1, 0, 0, 1, 0, 0)" xlink:href="#linear-gradient-12"/><linearGradient id="linear-gradient-18" x1="192.05" y1="176.15" x2="196.6" y2="176.15" gradientTransform="translate(413.26 320.59) rotate(171.22)" gradientUnits="userSpaceOnUse"><stop offset="0" stop-color="#faec21"/><stop offset="0.23" stop-color="#fae623"/><stop offset="0.53" stop-color="#fad62a"/><stop offset="0.87" stop-color="#f9ba36"/><stop offset="1" stop-color="#f9ae3b"/></linearGradient><linearGradient id="linear-gradient-19" x1="183.57" y1="174.84" x2="188.12" y2="174.84" gradientTransform="translate(28.86 -26.31) rotate(8.78)" gradientUnits="userSpaceOnUse"><stop offset="0" stop-color="#72003a"/><stop offset="0.61" stop-color="#ca1e59"/><stop offset="1" stop-color="#ff306c"/></linearGradient><linearGradient id="linear-gradient-20" x1="275.03" y1="188.75" x2="290.63" y2="188.75" gradientTransform="matrix(1, 0, 0, -1, -92.74, 377.5)" xlink:href="#linear-gradient-19"/><linearGradient id="linear-gradient-21" x1="270.9" y1="314.05" x2="147.68" y2="184.46" gradientUnits="userSpaceOnUse"><stop offset="0" stop-color="#1b1464"/><stop offset="0.29" stop-color="#323874"/><stop offset="0.56" stop-color="#435180"/><stop offset="0.81" stop-color="#4d6187"/><stop offset="1" stop-color="#516689"/></linearGradient><linearGradient id="linear-gradient-22" x1="130" y1="175.96" x2="174.01" y2="175.96" gradientTransform="matrix(1, 0, 0, 1, 0, 0)" xlink:href="#linear-gradient-19"/><linearGradient id="linear-gradient-23" x1="130" y1="181.98" x2="174.01" y2="181.98" gradientTransform="translate(304.01 363.96) rotate(180)" xlink:href="#linear-gradient-19"/><linearGradient id="linear-gradient-24" x1="131.1" y1="178.97" x2="172.91" y2="178.97" gradientTransform="translate(304.01 357.94) rotate(-180)" xlink:href="#linear-gradient-3"/><linearGradient id="linear-gradient-25" x1="125.98" y1="184.19" x2="169.99" y2="184.19" gradientUnits="userSpaceOnUse"><stop offset="0" stop-color="#88dcf2"/><stop offset="0.11" stop-color="#85d6ee"/><stop offset="0.25" stop-color="#7cc5e2"/><stop offset="0.42" stop-color="#6daacf"/><stop offset="0.6" stop-color="#5884b3"/><stop offset="0.79" stop-color="#3d5391"/><stop offset="0.99" stop-color="#1d1867"/><stop offset="1" stop-color="#1b1464"/></linearGradient><linearGradient id="linear-gradient-26" x1="125.98" y1="190.21" x2="169.99" y2="190.21" xlink:href="#linear-gradient-25"/><linearGradient id="linear-gradient-27" x1="127.09" y1="187.2" x2="168.89" y2="187.2" gradientTransform="translate(295.98 374.4) rotate(-180)" xlink:href="#linear-gradient-3"/><linearGradient id="linear-gradient-28" x1="132.01" y1="192.42" x2="176.02" y2="192.42" gradientTransform="matrix(1, 0, 0, 1, 0, 0)" xlink:href="#linear-gradient-18"/><linearGradient id="linear-gradient-29" x1="132.01" y1="198.44" x2="176.02" y2="198.44" gradientTransform="matrix(1, 0, 0, 1, 0, 0)" xlink:href="#linear-gradient-18"/><linearGradient id="linear-gradient-30" x1="133.11" y1="195.43" x2="174.91" y2="195.43" gradientTransform="translate(308.02 390.86) rotate(-180)" xlink:href="#linear-gradient-3"/><linearGradient id="linear-gradient-31" x1="315.39" y1="134.95" x2="218.2" y2="143.14" gradientUnits="userSpaceOnUse"><stop offset="0" stop-color="#1b1464"/><stop offset="0.16" stop-color="#27266c"/><stop offset="0.52" stop-color="#3e497c"/><stop offset="0.81" stop-color="#4c5e85"/><stop offset="1" stop-color="#516689"/></linearGradient><linearGradient id="linear-gradient-32" x1="419.46" y1="377.37" x2="377.3" y2="238.11" gradientTransform="matrix(-1, 0, 0, 1, 595.44, -41.5)" xlink:href="#linear-gradient-25"/><linearGradient id="linear-gradient-33" x1="387.9" y1="351" x2="397.86" y2="335.86" gradientTransform="matrix(-1, 0, 0, 1, 655.66, 0)" xlink:href="#linear-gradient-21"/><linearGradient id="linear-gradient-34" x1="421.31" y1="361.86" x2="379.14" y2="222.6" gradientTransform="matrix(-1, 0, 0, 1, 655.66, 0)" xlink:href="#linear-gradient-25"/><linearGradient id="linear-gradient-35" x1="429.96" y1="353.18" x2="439.93" y2="338.04" gradientTransform="matrix(-1, 0, 0, 1, 655.66, 0)" xlink:href="#linear-gradient-21"/><linearGradient id="linear-gradient-36" x1="335.65" y1="250.27" x2="398.53" y2="154.67" gradientTransform="matrix(-0.99, -0.15, -0.15, 0.99, 689.33, 54.88)" xlink:href="#linear-gradient-18"/><linearGradient id="linear-gradient-37" x1="282.18" y1="168.78" x2="301.86" y2="168.78" gradientTransform="matrix(0.15, -0.99, -0.99, -0.15, 343.95, 479.76)" xlink:href="#linear-gradient-12"/><linearGradient id="linear-gradient-38" x1="213.46" y1="187.67" x2="302.97" y2="187.67" gradientTransform="matrix(1, 0, 0, 1, 0, 0)" xlink:href="#linear-gradient-18"/><linearGradient id="linear-gradient-39" x1="253.6" y1="266.42" x2="240.74" y2="266.42" xlink:href="#linear-gradient-21"/><linearGradient id="linear-gradient-40" x1="306.73" y1="357.68" x2="306.73" y2="340.63" gradientUnits="userSpaceOnUse"><stop offset="0" stop-color="#1b1464"/><stop offset="1" stop-color="#516689"/></linearGradient><linearGradient id="linear-gradient-41" x1="285.55" y1="241.27" x2="290.79" y2="241.27" gradientTransform="translate(576.34 482.54) rotate(-180)" gradientUnits="userSpaceOnUse"><stop offset="0" stop-color="#516689"/><stop offset="0.19" stop-color="#4d6187"/><stop offset="0.44" stop-color="#435180"/><stop offset="0.71" stop-color="#323874"/><stop offset="1" stop-color="#1b1464"/></linearGradient><linearGradient id="linear-gradient-42" x1="308.59" y1="242.09" x2="289.89" y2="203.79" gradientTransform="matrix(1, 0, 0, 1, 0, 0)" xlink:href="#linear-gradient-19"/><linearGradient id="linear-gradient-43" x1="344.57" y1="301.94" x2="284.35" y2="160.46" gradientTransform="matrix(1, 0, 0, 1, 0, 0)" xlink:href="#linear-gradient-19"/></defs><g class="cls-1"><g id="BACKGROUND"><path class="cls-2" d="M392.8,87.84c9.49,20.14,8.53,44.64,1.25,65.35-4,11.48-9.91,22.93-8.88,35.06A39.62,39.62,0,0,0,387.71,199c4.91,13,15.31,24.09,20,37.1,9.26,25.8,7.77,56.07-2.43,82.42-6.14,15.86-15.45,30.32-27.49,41.53A87.53,87.53,0,0,1,353,376.41a82.2,82.2,0,0,1-21.4,6c-2.22.31-4.49.54-6.78.68a67.6,67.6,0,0,1-17.38-1.26,118.46,118.46,0,0,1-20.23-6.09c-4.68-1.79-9.3-3.77-13.88-5.72-6.73-2.89-69.57-19.88-120.09,7.63-5.91,3.21-10.93,6.37-16.28,7.62a37.75,37.75,0,0,1-18.22-.25c-21.23-5.43-39-27.89-47.59-49.73C62.37,313,64.63,289,80.65,273.75a50.72,50.72,0,0,1,14.82-9.68l.58-.26c6.77-2.87,14.21-4.05,20.92-7a33.56,33.56,0,0,0,3.3-1.62,33,33,0,0,0,14.08-16.14h0a33,33,0,0,0,2.25-17.86c-2.77-17-18-29.18-23.88-45.29l-.67-1.94,0-.08c-4.67-15.14,0-31.68,7.16-45.79a110.31,110.31,0,0,1,7.64-12.87c8.33-12.1,19.18-22.52,31.85-28.79A59.8,59.8,0,0,1,178,80.63a44.9,44.9,0,0,1,8.12-.27,29,29,0,0,1,15.35,5,29.87,29.87,0,0,1,7.1,7.52c3.69,5.47,6.23,12,9.27,17.94,4.64,9.1,12.73,18.29,22.84,17.46a16,16,0,0,0,3.72-.77c4.8-1.55,9-5.1,12.8-8.57,2-1.8,3.92-3.64,5.84-5.53,7.65-7.51,14.86-15.61,22.34-23.41,9.82-10.27,20.1-20,32.39-27.22.33-.21.68-.41,1-.6,12.29-7,25.39-8.56,37.38-5.63C371.51,60.34,385.07,71.45,392.8,87.84Z" transform="translate(-60.22 -41.5)"/><path class="cls-2" d="M277.26,55.4a6.87,6.87,0,0,1,8.6-4.61,7,7,0,0,1,4.57,8.68,6.88,6.88,0,0,1-8.6,4.61A7,7,0,0,1,277.26,55.4Z" transform="translate(-60.22 -41.5)"/><path class="cls-2" d="M303.76,56.32A3.47,3.47,0,0,1,306,60.66a3.43,3.43,0,0,1-4.3,2.31,3.49,3.49,0,0,1-2.28-4.35A3.44,3.44,0,0,1,303.76,56.32Z" transform="translate(-60.22 -41.5)"/><path class="cls-2" d="M294.32,42.67a4.29,4.29,0,0,1,6.1.22,4.39,4.39,0,0,1-.21,6.16,4.29,4.29,0,0,1-6.11-.22A4.38,4.38,0,0,1,294.32,42.67Z" transform="translate(-60.22 -41.5)"/><path class="cls-2" d="M156.49,391.13a9.37,9.37,0,0,1,11.72-6.28,9.48,9.48,0,0,1,6.22,11.82A9.37,9.37,0,0,1,162.71,403,9.48,9.48,0,0,1,156.49,391.13Z" transform="translate(-60.22 -41.5)"/><path class="cls-2" d="M187.3,389.38a4.75,4.75,0,0,1,3.12,5.91,4.69,4.69,0,0,1-5.86,3.14,4.74,4.74,0,0,1-3.11-5.91A4.67,4.67,0,0,1,187.3,389.38Z" transform="translate(-60.22 -41.5)"/><path class="cls-2" d="M179.72,373.8a5.84,5.84,0,0,1,8.31.3,6,6,0,0,1-.29,8.39,5.85,5.85,0,0,1-8.32-.3A6,6,0,0,1,179.72,373.8Z" transform="translate(-60.22 -41.5)"/><path class="cls-2" d="M60.64,236a9.36,9.36,0,0,1,11.71-6.28,9.48,9.48,0,0,1,6.22,11.82,9.36,9.36,0,0,1-11.71,6.28A9.47,9.47,0,0,1,60.64,236Z" transform="translate(-60.22 -41.5)"/><path class="cls-2" d="M96.72,237.23a4.75,4.75,0,0,1,3.11,5.91A4.69,4.69,0,0,1,94,246.28a4.74,4.74,0,0,1-3.11-5.91A4.68,4.68,0,0,1,96.72,237.23Z" transform="translate(-60.22 -41.5)"/><path class="cls-2" d="M83.86,218.65a5.86,5.86,0,0,1,8.32.29,6,6,0,0,1-.3,8.4,5.86,5.86,0,0,1-8.32-.3A6,6,0,0,1,83.86,218.65Z" transform="translate(-60.22 -41.5)"/><ellipse class="cls-2" cx="349.13" cy="136.02" rx="9.38" ry="9.46"/><path class="cls-2" d="M436.46,176a4.73,4.73,0,1,1-5.86,3.14A4.68,4.68,0,0,1,436.46,176Z" transform="translate(-60.22 -41.5)"/><path class="cls-2" d="M423.6,157.42a5.86,5.86,0,0,1,8.32.3,6,6,0,0,1-.29,8.39,5.85,5.85,0,0,1-8.32-.29A6,6,0,0,1,423.6,157.42Z" transform="translate(-60.22 -41.5)"/></g><g id="OBJECTS"><rect class="cls-3" x="195.47" y="56.58" width="144.8" height="91.14" transform="translate(475.52 162.81) rotate(180)"/><rect class="cls-4" x="220.74" y="22.17" width="53.16" height="76.97"/><rect class="cls-5" x="140.96" y="22.17" width="74.15" height="76.97"/><path class="cls-6" d="M285.55,104.11l25.4-.21c5-11-6.83-21.83-1.84-32.81l-23,.2C280.3,82.28,291.34,93.12,285.55,104.11Z" transform="translate(-60.22 -41.5)"/><g class="cls-7"><path class="cls-8" d="M287.16,80.73c0-.23-.05-.46-.07-.68l17.5-.15c0,.23.07.45.11.68Z" transform="translate(-60.22 -41.5)"/><path class="cls-8" d="M305.2,83l-17.67.15-.12-.68L305,82.33C305.09,82.56,305.14,82.78,305.2,83Z" transform="translate(-60.22 -41.5)"/><path class="cls-8" d="M305.85,85.44l-17.79.15c-.06-.23-.11-.46-.16-.68l17.76-.16C305.72,85,305.78,85.21,305.85,85.44Z" transform="translate(-60.22 -41.5)"/><path class="cls-8" d="M306.58,87.87,288.65,88c-.06-.23-.11-.46-.17-.69l17.89-.15Z" transform="translate(-60.22 -41.5)"/><path class="cls-8" d="M307.29,90.29l-18.06.16-.15-.69,18-.15C307.16,89.84,307.23,90.07,307.29,90.29Z" transform="translate(-60.22 -41.5)"/><path class="cls-8" d="M307.91,92.72l-18.19.16c0-.23-.08-.46-.12-.69L307.75,92C307.8,92.27,307.86,92.49,307.91,92.72Z" transform="translate(-60.22 -41.5)"/><path class="cls-8" d="M308.25,94.47c0,.23.07.45.1.68L290,95.31c0-.23,0-.46-.07-.69Z" transform="translate(-60.22 -41.5)"/><path class="cls-8" d="M287.39,74.86c.05-.25.12-.5.19-.75l4.07,0q-.11.38-.18.75Z" transform="translate(-60.22 -41.5)"/><path class="cls-8" d="M291.31,75.77q-.06.38-.09.75l-4.1,0q0-.37.09-.75Z" transform="translate(-60.22 -41.5)"/></g><path class="cls-9" d="M294.63,71.94a1.45,1.45,0,1,0,1.45-1.45A1.45,1.45,0,0,0,294.63,71.94Z" transform="translate(-60.22 -41.5)"/><rect class="cls-6" x="311.38" y="70.32" width="12.47" height="12.47" transform="translate(575.01 111.6) rotate(180)"/><path class="cls-9" d="M317.07,70.35a.78.78,0,1,0,.78-.78A.78.78,0,0,0,317.07,70.35Z" transform="translate(-60.22 -41.5)"/><rect class="cls-10" x="319.86" y="78.04" width="12.47" height="12.47" transform="translate(591.97 127.06) rotate(180)"/><path class="cls-9" d="M325.55,78.08a.78.78,0,0,0,.78.78.78.78,0,0,0,0-1.56A.78.78,0,0,0,325.55,78.08Z" transform="translate(-60.22 -41.5)"/><path class="cls-11" d="M294.13,134l32.19-.28c6.33-13.92-8.66-27.66-2.33-41.58l-29.19.25C287.48,106.28,301.46,120,294.13,134Z" transform="translate(-60.22 -41.5)"/><path class="cls-8" d="M296.17,104.32c0-.29-.06-.58-.09-.87l22.18-.19c0,.29.09.58.13.87Z" transform="translate(-60.22 -41.5)"/><path class="cls-8" d="M319,107.21l-22.39.19c-.06-.29-.11-.58-.16-.87l22.35-.19C318.89,106.63,319,106.92,319,107.21Z" transform="translate(-60.22 -41.5)"/><path class="cls-8" d="M319.86,110.29l-22.56.19c-.07-.29-.13-.58-.2-.87l22.51-.19C319.69,109.71,319.78,110,319.86,110.29Z" transform="translate(-60.22 -41.5)"/><path class="cls-8" d="M320.78,113.36l-22.72.2c-.08-.29-.15-.58-.22-.87l22.68-.19C320.6,112.79,320.69,113.07,320.78,113.36Z" transform="translate(-60.22 -41.5)"/><path class="cls-8" d="M321.68,116.44l-22.88.2c-.07-.29-.14-.58-.2-.87l22.84-.2Z" transform="translate(-60.22 -41.5)"/><path class="cls-8" d="M322.47,119.52l-23.05.2c-.05-.29-.11-.58-.16-.87l23-.2C322.34,118.94,322.4,119.23,322.47,119.52Z" transform="translate(-60.22 -41.5)"/><path class="cls-8" d="M322.9,121.73c.05.29.09.58.13.87l-23.22.2c0-.29-.05-.58-.08-.87Z" transform="translate(-60.22 -41.5)"/><path class="cls-8" d="M296.46,96.88c.07-.32.15-.63.23-.95l5.16,0c-.08.31-.15.63-.22,1Z" transform="translate(-60.22 -41.5)"/><path class="cls-8" d="M301.42,98c0,.31-.08.63-.11,1l-5.2,0c0-.32.08-.63.12-1Z" transform="translate(-60.22 -41.5)"/><path class="cls-9" d="M305.63,93.18a1.84,1.84,0,1,0,1.84-1.84A1.84,1.84,0,0,0,305.63,93.18Z" transform="translate(-60.22 -41.5)"/><rect class="cls-12" x="221.22" y="99.99" width="15.17" height="44.93" transform="translate(340.98 274.94) rotate(-159.78)"/><rect class="cls-13" x="228.57" y="102.63" width="12.61" height="6.69" transform="translate(358.44 245.09) rotate(-159.78)"/><rect class="cls-14" x="226.35" y="108.66" width="12.61" height="6.69" transform="translate(352.06 256) rotate(-159.78)"/><rect class="cls-15" x="224.13" y="114.69" width="12.61" height="6.69" transform="translate(345.67 266.92) rotate(-159.78)"/><rect class="cls-16" x="221.91" y="120.72" width="12.61" height="6.69" transform="translate(339.29 277.84) rotate(-159.78)"/><rect class="cls-17" x="219.69" y="126.74" width="12.61" height="6.69" transform="translate(332.9 288.76) rotate(-159.78)"/><rect class="cls-9" x="219.58" y="135.44" width="10.69" height="0.63" transform="translate(328.87 299.37) rotate(-159.78)"/><rect class="cls-9" x="218.62" y="138.05" width="10.69" height="0.63" transform="translate(326.1 304.11) rotate(-159.78)"/><rect class="cls-18" x="211.73" y="97.23" width="15.17" height="44.93" transform="translate(347.29 242.54) rotate(-167.5)"/><rect class="cls-19" x="216.82" y="99.2" width="12.61" height="6.69" transform="translate(358.52 209.47) rotate(-167.49)"/><rect class="cls-20" x="215.43" y="105.47" width="12.61" height="6.69" transform="translate(354.41 221.56) rotate(-167.49)"/><rect class="cls-21" x="214.03" y="111.75" width="12.61" height="6.69" transform="translate(350.31 233.66) rotate(-167.49)"/><rect class="cls-22" x="212.64" y="118.02" width="12.61" height="6.69" transform="translate(346.2 245.75) rotate(-167.49)"/><rect class="cls-23" x="211.25" y="124.29" width="12.61" height="6.69" transform="translate(342.09 257.84) rotate(-167.49)"/><rect class="cls-9" x="211.91" y="133.08" width="10.69" height="0.63" transform="translate(340.26 269.16) rotate(-167.5)"/><rect class="cls-9" x="211.31" y="135.8" width="10.69" height="0.63" transform="translate(338.48 274.4) rotate(-167.5)"/><rect class="cls-24" x="202.34" y="95.95" width="15.17" height="44.93" transform="translate(353.22 206.02) rotate(-177.04)"/><rect class="cls-25" x="204.53" y="97.53" width="12.61" height="6.69" transform="translate(355.94 171.01) rotate(-177.04)"/><rect class="cls-26" x="204.19" y="103.95" width="12.61" height="6.69" transform="translate(354.95 183.81) rotate(-177.04)"/><rect class="cls-27" x="203.86" y="110.36" width="12.61" height="6.69" transform="matrix(-1, -0.05, 0.05, -1, 353.95, 196.62)"/><rect class="cls-28" x="203.53" y="116.78" width="12.61" height="6.69" transform="translate(352.96 209.42) rotate(-177.04)"/><rect class="cls-29" x="203.2" y="123.19" width="12.61" height="6.69" transform="translate(351.97 222.23) rotate(-177.04)"/><rect class="cls-9" x="204.82" y="131.95" width="10.69" height="0.63" transform="translate(352.99 233.71) rotate(-177.04)"/><rect class="cls-9" x="204.67" y="134.73" width="10.69" height="0.63" transform="translate(352.56 239.26) rotate(-177.04)"/><path class="cls-30" d="M195.47,136.11h39.4a0,0,0,0,1,0,0v11.47a0,0,0,0,1,0,0h-35a4.36,4.36,0,0,1-4.36-4.36v-7.11A0,0,0,0,1,195.47,136.11Z" transform="translate(370.13 242.19) rotate(180)"/><path class="cls-31" d="M211.08,76.55h55.21A1.58,1.58,0,0,0,267.87,75h0a1.58,1.58,0,0,0-1.58-1.58H211.08A1.58,1.58,0,0,0,209.5,75h0A1.58,1.58,0,0,0,211.08,76.55Z" transform="translate(-60.22 -41.5)"/><path class="cls-32" d="M211.08,85.49h55.21a1.58,1.58,0,0,0,1.58-1.58h0a1.58,1.58,0,0,0-1.58-1.58H211.08a1.58,1.58,0,0,0-1.58,1.58h0A1.58,1.58,0,0,0,211.08,85.49Z" transform="translate(-60.22 -41.5)"/><path class="cls-33" d="M211.08,94.47h55.21a1.58,1.58,0,0,0,1.58-1.58h0a1.58,1.58,0,0,0-1.58-1.58H211.08a1.58,1.58,0,0,0-1.58,1.58h0A1.58,1.58,0,0,0,211.08,94.47Z" transform="translate(-60.22 -41.5)"/><ellipse class="cls-34" cx="181.74" cy="306.49" rx="129.94" ry="10.93"/><polygon class="cls-35" points="146.75 156.25 117.14 114.77 182.65 114.77 215.71 155.64 146.75 156.25"/><polygon class="cls-36" points="149.84 151.76 126.42 118.32 180.27 118.25 204.4 151.76 149.84 151.76"/><polygon class="cls-37" points="146.75 156.25 143.3 158.43 115.11 117.2 117.14 114.77 146.75 156.25"/><polygon class="cls-38" points="215.71 155.64 212.67 158.43 143.3 158.43 146.75 156.25 215.71 155.64"/><polygon class="cls-39" points="143.3 158.43 109.06 158.43 125.02 131.7 143.3 158.43"/><path class="cls-40" d="M221.18,182.48a2.35,2.35,0,0,1-.88-.18l1.13,1.94c.22.37,1.18,2.07,1.18,2.07s-3.08.43-8.51-2.31a21,21,0,0,1-6-4.28,13,13,0,0,1-2.33-3.07l4.11-.08a2.47,2.47,0,0,1-.62-.68c-.48-.82,0-1.47,1.06-1.33a3.08,3.08,0,0,1,1.83,1,1.34,1.34,0,0,1,.38,1l4.31,0,0,0h0l2,3.46a1.3,1.3,0,0,1,.91-.18,3.07,3.07,0,0,1,2,1.17C222.42,181.79,222.09,182.47,221.18,182.48Z" transform="translate(-60.22 -41.5)"/><path class="cls-13" d="M232.64,175.13l-4.76-1a1.69,1.69,0,0,1,.4.74c.19.81-.65,1.24-1.81.84a3,3,0,0,1-1.65-1.34.9.9,0,0,1,0-.93l-.25,0-3.26-.73-1.47-.32v0h-.05L219,168.8a2.18,2.18,0,0,1-1.13-.09,2.89,2.89,0,0,1-1.77-1.51c-.29-.83.39-1.32,1.44-1.09a3.23,3.23,0,0,1,.94.39l-.43-1.94c-.09-.37-.44-2.07-.44-2.07a17.82,17.82,0,0,1,6.22,2.51c.79.48,1.64,1,2.54,1.71l.32.24a17.61,17.61,0,0,1,4.63,5A8.67,8.67,0,0,1,232.64,175.13Z" transform="translate(-60.22 -41.5)"/><path class="cls-41" d="M232.05,178c1.15,2.29,1.17,4.33.28,5.85-1.08,1.83-3.48,2.89-6.83,2.71l-1.77-3.66a2.79,2.79,0,0,0,.87.22c.91,0,1.31-.57.82-1.35a2.89,2.89,0,0,0-1.87-1.2,1.42,1.42,0,0,0-.93.11L221,177.29l4.48.23a.93.93,0,0,0,.12,1,2.9,2.9,0,0,0,1.92,1.19c1,.14,1.46-.43,1.08-1.18a2.41,2.41,0,0,0-.81-.88Z" transform="translate(-60.22 -41.5)"/><path class="cls-42" d="M203.11,171.06c-1.81-5.37,2.35-8.83,9.3-7.74l1.25,3.88a3,3,0,0,0-.95-.32c-1-.16-1.61.4-1.22,1.24a3,3,0,0,0,1.88,1.43,1.8,1.8,0,0,0,1.08,0l1.2,3.55-5.06-.8a.86.86,0,0,0,.07-1,3.09,3.09,0,0,0-1.95-1.43c-1.09-.26-1.76.24-1.49,1.05a2.19,2.19,0,0,0,.75,1Z" transform="translate(-60.22 -41.5)"/><path class="cls-40" d="M246.79,187.48a1.17,1.17,0,0,1-.44-.08l.57,1c.1.19.59,1,.59,1a8.14,8.14,0,0,1-4.26-1.16,10.37,10.37,0,0,1-3-2.14,6.38,6.38,0,0,1-1.16-1.53l2.05,0a1.23,1.23,0,0,1-.31-.34c-.24-.41,0-.74.53-.67a1.6,1.6,0,0,1,.92.51.75.75,0,0,1,.19.49l2.15,0h0l1,1.74a.57.57,0,0,1,.45-.09,1.52,1.52,0,0,1,1,.58C247.41,187.14,247.25,187.48,246.79,187.48Z" transform="translate(-60.22 -41.5)"/><path class="cls-13" d="M252.52,183.81l-2.38-.51a.8.8,0,0,1,.2.37c.1.41-.32.62-.9.42a1.53,1.53,0,0,1-.83-.67.44.44,0,0,1,0-.46l-.12,0-1.63-.36-.74-.17v0h0l-.39-1.73a1.17,1.17,0,0,1-.57-.05,1.41,1.41,0,0,1-.88-.76c-.15-.41.19-.66.72-.54a2.11,2.11,0,0,1,.47.19l-.22-1-.22-1a8.71,8.71,0,0,1,3.11,1.26,14.06,14.06,0,0,1,1.27.85l.16.12a8.76,8.76,0,0,1,2.32,2.48A4.27,4.27,0,0,1,252.52,183.81Z" transform="translate(-60.22 -41.5)"/><path class="cls-41" d="M252.23,185.22a3,3,0,0,1,.13,2.93c-.53.91-1.73,1.44-3.41,1.35l-.88-1.83a1.36,1.36,0,0,0,.43.11c.46,0,.66-.29.41-.68a1.5,1.5,0,0,0-.93-.6.75.75,0,0,0-.47.06l-.83-1.67,2.24.12a.48.48,0,0,0,.06.49,1.48,1.48,0,0,0,1,.6c.49.06.73-.22.54-.6a1.25,1.25,0,0,0-.4-.43Z" transform="translate(-60.22 -41.5)"/><path class="cls-42" d="M237.76,181.77c-.91-2.68,1.17-4.41,4.65-3.87l.62,1.95a1.66,1.66,0,0,0-.47-.17c-.52-.08-.81.2-.62.62a1.48,1.48,0,0,0,.95.72.9.9,0,0,0,.54,0l.6,1.78-2.54-.4a.42.42,0,0,0,0-.5,1.53,1.53,0,0,0-1-.72c-.55-.13-.88.13-.75.53a1.21,1.21,0,0,0,.38.49Z" transform="translate(-60.22 -41.5)"/><polygon class="cls-43" points="180.27 118.25 125.71 118.25 126.62 119.51 181.17 119.51 180.27 118.25"/><polygon class="cls-44" points="180.92 119.16 126.36 119.16 127.27 120.42 181.82 120.42 180.92 119.16"/><polygon class="cls-45" points="152.39 151.76 149.84 151.76 127.16 120.27 129.71 120.27 152.39 151.76"/><polygon class="cls-44" points="130.36 121.17 127.81 121.17 127.16 120.27 129.71 120.27 130.36 121.17"/><path class="cls-44" d="M191.11,164.27c.24.33.12.6-.27.6a1.6,1.6,0,0,1-1.15-.6c-.24-.34-.12-.61.27-.61A1.61,1.61,0,0,1,191.11,164.27Z" transform="translate(-60.22 -41.5)"/><path class="cls-46" d="M192.34,166c.24.33.12.6-.27.6a1.62,1.62,0,0,1-1.15-.6c-.24-.34-.12-.61.27-.61A1.59,1.59,0,0,1,192.34,166Z" transform="translate(-60.22 -41.5)"/><path class="cls-44" d="M193.57,167.69c.24.33.12.6-.27.6a1.62,1.62,0,0,1-1.15-.6c-.24-.34-.12-.61.27-.61A1.59,1.59,0,0,1,193.57,167.69Z" transform="translate(-60.22 -41.5)"/><path class="cls-46" d="M194.8,169.4c.24.33.12.6-.27.6a1.64,1.64,0,0,1-1.15-.6c-.24-.34-.11-.61.28-.61A1.57,1.57,0,0,1,194.8,169.4Z" transform="translate(-60.22 -41.5)"/><path class="cls-44" d="M196,171.1c.24.34.12.61-.27.61a1.57,1.57,0,0,1-1.14-.61c-.25-.33-.12-.6.27-.6A1.6,1.6,0,0,1,196,171.1Z" transform="translate(-60.22 -41.5)"/><path class="cls-46" d="M197.26,172.81c.24.34.12.61-.27.61a1.57,1.57,0,0,1-1.14-.61c-.24-.33-.12-.6.27-.6A1.6,1.6,0,0,1,197.26,172.81Z" transform="translate(-60.22 -41.5)"/><path class="cls-44" d="M198.49,174.52c.24.34.12.61-.27.61a1.57,1.57,0,0,1-1.14-.61c-.24-.33-.12-.6.27-.6A1.6,1.6,0,0,1,198.49,174.52Z" transform="translate(-60.22 -41.5)"/><path class="cls-46" d="M199.72,176.23c.24.34.12.61-.27.61a1.57,1.57,0,0,1-1.14-.61c-.24-.33-.12-.6.27-.6A1.6,1.6,0,0,1,199.72,176.23Z" transform="translate(-60.22 -41.5)"/><path class="cls-44" d="M201,177.94c.24.34.12.61-.27.61a1.57,1.57,0,0,1-1.14-.61c-.24-.33-.12-.6.27-.6A1.6,1.6,0,0,1,201,177.94Z" transform="translate(-60.22 -41.5)"/><path class="cls-46" d="M202.18,179.65c.24.34.12.61-.27.61a1.57,1.57,0,0,1-1.14-.61c-.24-.33-.12-.6.27-.6A1.6,1.6,0,0,1,202.18,179.65Z" transform="translate(-60.22 -41.5)"/><path class="cls-44" d="M203.41,181.36c.25.33.12.61-.27.61a1.61,1.61,0,0,1-1.14-.61c-.24-.33-.12-.61.27-.61A1.61,1.61,0,0,1,203.41,181.36Z" transform="translate(-60.22 -41.5)"/><polygon class="cls-44" points="145.12 142.51 143.95 142.51 143.23 141.51 144.4 141.51 145.12 142.51"/><polygon class="cls-10" points="144.49 142.01 143.32 142.01 142.6 141 143.77 141 144.49 142.01"/><polygon class="cls-47" points="204.4 151.76 201.85 151.76 179.17 120.27 181.72 120.27 204.4 151.76"/><polygon class="cls-44" points="182.37 121.17 179.82 121.17 179.17 120.27 181.72 120.27 182.37 121.17"/><path class="cls-44" d="M243.12,164.27c.24.33.12.6-.28.6a1.6,1.6,0,0,1-1.14-.6c-.24-.34-.12-.61.27-.61A1.61,1.61,0,0,1,243.12,164.27Z" transform="translate(-60.22 -41.5)"/><path class="cls-46" d="M244.35,166c.24.33.12.6-.27.6a1.62,1.62,0,0,1-1.15-.6c-.24-.34-.12-.61.27-.61A1.59,1.59,0,0,1,244.35,166Z" transform="translate(-60.22 -41.5)"/><path class="cls-44" d="M245.58,167.69c.24.33.12.6-.27.6a1.62,1.62,0,0,1-1.15-.6c-.24-.34-.12-.61.27-.61A1.59,1.59,0,0,1,245.58,167.69Z" transform="translate(-60.22 -41.5)"/><path class="cls-46" d="M246.81,169.4c.24.33.12.6-.27.6a1.64,1.64,0,0,1-1.15-.6c-.24-.34-.12-.61.28-.61A1.57,1.57,0,0,1,246.81,169.4Z" transform="translate(-60.22 -41.5)"/><path class="cls-44" d="M248,171.1c.24.34.12.61-.27.61a1.57,1.57,0,0,1-1.14-.61c-.25-.33-.12-.6.27-.6A1.6,1.6,0,0,1,248,171.1Z" transform="translate(-60.22 -41.5)"/><path class="cls-46" d="M249.27,172.81c.24.34.12.61-.27.61a1.57,1.57,0,0,1-1.14-.61c-.24-.33-.12-.6.27-.6A1.6,1.6,0,0,1,249.27,172.81Z" transform="translate(-60.22 -41.5)"/><path class="cls-44" d="M250.5,174.52c.24.34.12.61-.27.61a1.57,1.57,0,0,1-1.14-.61c-.24-.33-.12-.6.27-.6A1.6,1.6,0,0,1,250.5,174.52Z" transform="translate(-60.22 -41.5)"/><path class="cls-46" d="M251.73,176.23c.24.34.12.61-.27.61a1.57,1.57,0,0,1-1.14-.61c-.24-.33-.12-.6.27-.6A1.6,1.6,0,0,1,251.73,176.23Z" transform="translate(-60.22 -41.5)"/><path class="cls-44" d="M253,177.94c.24.34.12.61-.27.61a1.57,1.57,0,0,1-1.14-.61c-.24-.33-.12-.6.27-.6A1.6,1.6,0,0,1,253,177.94Z" transform="translate(-60.22 -41.5)"/><path class="cls-46" d="M254.19,179.65c.24.34.12.61-.27.61a1.57,1.57,0,0,1-1.14-.61c-.24-.33-.12-.6.27-.6A1.6,1.6,0,0,1,254.19,179.65Z" transform="translate(-60.22 -41.5)"/><path class="cls-44" d="M255.42,181.36c.25.33.12.61-.27.61a1.61,1.61,0,0,1-1.14-.61c-.24-.33-.12-.61.27-.61A1.61,1.61,0,0,1,255.42,181.36Z" transform="translate(-60.22 -41.5)"/><polygon class="cls-47" points="185.97 130.22 175.31 130.22 169.74 122.48 180.4 122.48 185.97 130.22"/><polygon class="cls-44" points="178.13 124.19 174.61 124.19 173.38 122.48 176.9 122.48 178.13 124.19"/><path class="cls-10" d="M239.31,165.43l-.09,0c-.07,0-.12-.09-.1-.13l.12-.27-.56-.32c-.07,0-.11-.1-.09-.13s.1,0,.17,0l.67.39c.07,0,.11.1.09.13l-.15.33A.06.06,0,0,1,239.31,165.43Z" transform="translate(-60.22 -41.5)"/><path class="cls-10" d="M240.18,165.43a.19.19,0,0,1-.1,0c-.07,0-.11-.09-.1-.13l.12-.27-.56-.32c-.06,0-.1-.1-.08-.13s.09,0,.16,0l.68.39c.06,0,.1.1.08.13l-.14.33A.06.06,0,0,1,240.18,165.43Z" transform="translate(-60.22 -41.5)"/><polygon class="cls-48" points="173.84 125.61 172.45 125.61 171.59 124.43 172.98 124.43 173.84 125.61"/><polygon class="cls-49" points="175.22 125.61 173.84 125.61 172.98 124.43 174.37 124.43 175.22 125.61"/><polygon class="cls-50" points="176.61 125.61 175.22 125.61 174.37 124.43 175.76 124.43 176.61 125.61"/><polygon class="cls-13" points="178 125.61 176.61 125.61 175.76 124.43 177.15 124.43 178 125.61"/><polygon class="cls-10" points="179.39 125.61 178 125.61 177.15 124.43 178.53 124.43 179.39 125.61"/><polygon points="180.8 125.61 179.41 125.61 178.56 124.43 179.95 124.43 180.8 125.61"/><polygon class="cls-51" points="182.19 125.61 180.8 125.61 179.95 124.43 181.34 124.43 182.19 125.61"/><polygon class="cls-52" points="174.69 126.81 173.3 126.81 172.45 125.61 173.84 125.61 174.69 126.81"/><polygon class="cls-53" points="176.08 126.81 174.69 126.81 173.84 125.61 175.22 125.61 176.08 126.81"/><polygon class="cls-54" points="177.47 126.81 176.08 126.81 175.22 125.61 176.61 125.61 177.47 126.81"/><polygon class="cls-55" points="178.86 126.81 177.47 126.81 176.61 125.61 178 125.61 178.86 126.81"/><polygon class="cls-56" points="180.25 126.81 178.86 126.81 178 125.61 179.39 125.61 180.25 126.81"/><polygon class="cls-57" points="181.66 126.81 180.27 126.81 179.41 125.61 180.8 125.61 181.66 126.81"/><polygon class="cls-58" points="183.05 126.81 181.66 126.81 180.8 125.61 182.19 125.61 183.05 126.81"/><polygon class="cls-59" points="175.55 128 174.16 128 173.3 126.81 174.69 126.81 175.55 128"/><polygon class="cls-60" points="176.94 128 175.55 128 174.69 126.81 176.08 126.81 176.94 128"/><polygon class="cls-61" points="178.33 128 176.94 128 176.08 126.81 177.47 126.81 178.33 128"/><polygon class="cls-62" points="179.72 128 178.33 128 177.47 126.81 178.86 126.81 179.72 128"/><polygon class="cls-63" points="181.1 128 179.72 128 178.86 126.81 180.25 126.81 181.1 128"/><polygon class="cls-64" points="182.52 128 181.13 128 180.27 126.81 181.66 126.81 182.52 128"/><polygon class="cls-65" points="183.91 128 182.52 128 181.66 126.81 183.05 126.81 183.91 128"/><polygon points="176.75 129.67 175.37 129.67 174.51 128.48 175.9 128.48 176.75 129.67"/><polygon class="cls-66" points="178.14 129.67 176.75 129.67 175.9 128.48 177.29 128.48 178.14 129.67"/><polygon class="cls-67" points="179.53 129.67 178.14 129.67 177.29 128.48 178.68 128.48 179.53 129.67"/><polygon class="cls-46" points="180.92 129.67 179.53 129.67 178.68 128.48 180.06 128.48 180.92 129.67"/><polygon class="cls-68" points="182.31 129.67 180.92 129.67 180.06 128.48 181.45 128.48 182.31 129.67"/><polygon class="cls-69" points="183.72 129.67 182.31 129.67 181.45 128.48 182.87 128.48 183.72 129.67"/><polygon class="cls-70" points="185.11 129.67 183.72 129.67 182.87 128.48 184.25 128.48 185.11 129.67"/><polygon class="cls-47" points="193.19 140.16 182.53 140.16 176.96 132.43 187.62 132.43 193.19 140.16"/><polygon class="cls-44" points="185.29 134.13 181.77 134.13 180.54 132.43 184.06 132.43 185.29 134.13"/><path class="cls-10" d="M246.48,175.38a.19.19,0,0,1-.1,0c-.07,0-.11-.1-.1-.14l.12-.27-.56-.32c-.07,0-.11-.09-.09-.13a.15.15,0,0,1,.17,0l.67.39c.07,0,.11.09.09.12l-.15.34S246.5,175.38,246.48,175.38Z" transform="translate(-60.22 -41.5)"/><path class="cls-10" d="M247.34,175.38l-.1,0c-.07,0-.11-.1-.09-.14l.12-.27-.57-.32c-.06,0-.1-.09-.08-.13s.09,0,.16,0l.68.39c.06,0,.1.09.09.12l-.15.34A.06.06,0,0,1,247.34,175.38Z" transform="translate(-60.22 -41.5)"/><polygon class="cls-67" points="189.69 135.83 179.78 135.83 178.88 134.58 188.8 134.58 189.69 135.83"/><polygon class="cls-46" points="181.3 135.83 179.78 135.83 178.88 134.58 180.41 134.58 181.3 135.83"/><path class="cls-47" d="M240.76,176.71c.09.12,0,.22-.29.22a.85.85,0,0,1-.6-.22c-.09-.13,0-.22.29-.22A.81.81,0,0,1,240.76,176.71Z" transform="translate(-60.22 -41.5)"/><polygon class="cls-69" points="182.91 135.77 181.55 135.77 180.76 134.67 182.11 134.67 182.91 135.77"/><path class="cls-68" d="M249.07,177h-5.38a.71.71,0,0,1-.5-.26h0c-.11-.15-.06-.27.12-.27h5.37a.72.72,0,0,1,.51.27h0C249.29,176.9,249.24,177,249.07,177Z" transform="translate(-60.22 -41.5)"/><polygon class="cls-67" points="190.71 137.24 180.8 137.24 179.9 136 189.81 136 190.71 137.24"/><polygon class="cls-46" points="182.32 137.24 180.8 137.24 179.9 136 181.42 136 182.32 137.24"/><path class="cls-47" d="M241.78,178.12c.09.12,0,.22-.29.22a.83.83,0,0,1-.6-.22c-.09-.12,0-.22.28-.22A.86.86,0,0,1,241.78,178.12Z" transform="translate(-60.22 -41.5)"/><polygon class="cls-69" points="183.92 137.19 182.57 137.19 181.78 136.08 183.13 136.08 183.92 137.19"/><path class="cls-68" d="M250.08,178.44h-5.37a.72.72,0,0,1-.51-.27h0c-.1-.15,0-.27.12-.27h5.38a.68.68,0,0,1,.5.27h0C250.31,178.32,250.26,178.44,250.08,178.44Z" transform="translate(-60.22 -41.5)"/><polygon class="cls-44" points="180.1 118.63 178.69 118.63 178.56 118.44 179.97 118.44 180.1 118.63"/><polygon class="cls-44" points="180.28 118.88 178.88 118.88 178.75 118.7 180.15 118.7 180.28 118.88"/><path class="cls-71" d="M188,161.28c.1.14.05.25-.12.25a.67.67,0,0,1-.49-.25c-.1-.15,0-.26.12-.26A.69.69,0,0,1,188,161.28Z" transform="translate(-60.22 -41.5)"/><path class="cls-48" d="M189,161.28c.1.14.05.25-.12.25a.67.67,0,0,1-.49-.25c-.1-.15,0-.26.12-.26A.69.69,0,0,1,189,161.28Z" transform="translate(-60.22 -41.5)"/><path class="cls-61" d="M190,161.28c.11.14.05.25-.11.25a.67.67,0,0,1-.49-.25c-.1-.15-.05-.26.11-.26A.65.65,0,0,1,190,161.28Z" transform="translate(-60.22 -41.5)"/><rect class="cls-72" x="193.35" y="167.6" width="1.97" height="17.1" transform="translate(299.28 338.4) rotate(-171.22)"/><rect class="cls-73" x="184.86" y="166.29" width="1.97" height="17.1" transform="matrix(0.99, -0.15, 0.15, 0.99, -84.73, -11.09)"/><rect class="cls-9" x="128.39" y="122.33" width="2.18" height="18.95"/><rect class="cls-74" x="182.29" y="177.51" width="15.6" height="22.48" transform="translate(319.95 336) rotate(180)"/><path class="cls-75" d="M333.58,207.18h-202v13.27h8.57V348.83a1.37,1.37,0,0,0,1.37,1.37h9.34a1.37,1.37,0,0,0,1.38-1.37V220.45H301.57V348.92a1.28,1.28,0,0,0,1.28,1.28h9.52a1.28,1.28,0,0,0,1.29-1.28V220.45h19.92Z" transform="translate(-60.22 -41.5)"/><path class="cls-9" d="M342.33,208H122.88a3.87,3.87,0,0,1-3.86-3.86h0a3.88,3.88,0,0,1,3.86-3.86H342.33a3.88,3.88,0,0,1,3.86,3.86h0A3.87,3.87,0,0,1,342.33,208Z" transform="translate(-60.22 -41.5)"/><path class="cls-76" d="M131.1,177.06h41.81A1.1,1.1,0,0,0,174,176h0a1.11,1.11,0,0,0-1.1-1.11H131.1A1.11,1.11,0,0,0,130,176h0A1.1,1.1,0,0,0,131.1,177.06Z" transform="translate(-60.22 -41.5)"/><rect class="cls-77" x="130" y="180.88" width="44.01" height="2.21" rx="0.53" transform="translate(243.79 322.46) rotate(-180)"/><rect class="cls-78" x="131.1" y="177.06" width="41.8" height="3.81" transform="translate(243.79 316.44) rotate(180)"/><path class="cls-79" d="M127.09,185.29h41.8a1.1,1.1,0,0,0,1.1-1.1h0a1.11,1.11,0,0,0-1.1-1.11h-41.8a1.11,1.11,0,0,0-1.11,1.11h0A1.11,1.11,0,0,0,127.09,185.29Z" transform="translate(-60.22 -41.5)"/><path class="cls-80" d="M127.09,191.31h41.8a1.1,1.1,0,0,0,1.1-1.1h0a1.1,1.1,0,0,0-1.1-1.1h-41.8a1.11,1.11,0,0,0-1.11,1.1h0A1.11,1.11,0,0,0,127.09,191.31Z" transform="translate(-60.22 -41.5)"/><rect class="cls-81" x="127.09" y="185.29" width="41.8" height="3.81" transform="translate(235.76 332.9) rotate(180)"/><path class="cls-82" d="M133.11,193.52h41.8a1.11,1.11,0,0,0,1.11-1.1h0a1.11,1.11,0,0,0-1.11-1.11h-41.8a1.11,1.11,0,0,0-1.1,1.11h0A1.1,1.1,0,0,0,133.11,193.52Z" transform="translate(-60.22 -41.5)"/><path class="cls-83" d="M133.11,199.54h41.8a1.11,1.11,0,0,0,1.11-1.1h0a1.11,1.11,0,0,0-1.11-1.1h-41.8a1.1,1.1,0,0,0-1.1,1.1h0A1.1,1.1,0,0,0,133.11,199.54Z" transform="translate(-60.22 -41.5)"/><rect class="cls-84" x="133.11" y="193.52" width="41.8" height="3.81" transform="translate(247.8 349.36) rotate(180)"/><path class="cls-85" d="M288.84,143.79a171.21,171.21,0,0,1,9.24,21.14c1.6,4.72-9.62,12.94-10.17,12.85a1.59,1.59,0,0,1-1.36-1.36c-.74-5.12-2.74-14.06-8.08-20.14Z" transform="translate(-60.22 -41.5)"/><path class="cls-86" d="M292.64,133.39c-3.6-6.73-9.85-12.74-15.08-12.4-6.08.4-11.15,3.36-12.35,13.88A51.93,51.93,0,0,0,265,143c.06,1.27-1.46,7.95-1.29,8.57s2.33.69,3.08.69a.35.35,0,0,0,.18-.05c2.49,5.88,7.6,10.63,13.76,10.77,5.57.12,11.34-6.13,13.49-12.85C296.82,142,293.24,134.5,292.64,133.39Z" transform="translate(-60.22 -41.5)"/><path class="cls-87" d="M299.21,127.7c-.6-1.8-9.08-14.33-21.75-7.58-3.91,2.08-13.6,1.61-17.52,3.12-4.3,1.67-9.62,6.68-4.91,11.61,3.35,3.51,7.52,3.64,10.79,2.94a3.92,3.92,0,0,0,2.73-5.25c0-.12-.08-.24-.11-.37.94,2.44,10,2.88,10.67,12.29,1.47-1.77,1.83-6.15,4.69-5.18,2.25.76,4,3.08,3.43,5.43-.65,2.78-3.23,2.32-2.49,5.31,1.65,6.71,4.57,5.45,6.39,6.25,3.55,1.54,9.16-12.85,9.49-15.66A31.87,31.87,0,0,0,299.21,127.7Z" transform="translate(-60.22 -41.5)"/><polygon class="cls-88" points="180.4 226.54 210.35 296.29 216.99 295.15 198.69 224.26 180.4 226.54"/><path class="cls-89" d="M277.21,336.65l-6.63,1.14-1.38,4.52s-20.12-1.77-21.49,6.92l13.89.85a24.84,24.84,0,0,0,9.06-1.11l7.08-2.23a3.18,3.18,0,0,0,2-4.29Z" transform="translate(-60.22 -41.5)"/><path class="cls-90" d="M295.16,244.6l-58,5.72a24.12,24.12,0,0,0-21.26,28.9c5.39,26,12.85,62.1,12.85,62.69,0,.91,6.47,0,6.47,0l1.52-69L299,271.76a12.74,12.74,0,0,0,12.27-15.08h0A14.9,14.9,0,0,0,295.16,244.6Z" transform="translate(-60.22 -41.5)"/><path class="cls-91" d="M235.2,341h-6.47v3.89s-22.19-1.37-22.41,5.49H233a2.17,2.17,0,0,0,2.16-2.17Z" transform="translate(-60.22 -41.5)"/><path class="cls-92" d="M316.89,169.73a38.51,38.51,0,0,1,5.48,6c6.94,9.25,10.38,21.67,10.07,34.52-1.08,44.49-12.56,65.1-35,60.5-9.89-2-16.14-13.34-14-25.42h0c3.15-17.81-.42-35.92-9.73-49.34h0c-3.25-4.69-3.22-11.68.07-16.8h0c3-4.65,10.72-11,10.72-11l12.92-5.73S310.05,163.8,316.89,169.73Z" transform="translate(-60.22 -41.5)"/><path class="cls-93" d="M208.65,171.22l-1.06,2,2.1,0L235,159.51a1.09,1.09,0,0,0,.45-1.48h0a1.09,1.09,0,0,0-1.48-.45Z" transform="translate(-60.22 -41.5)"/><path class="cls-94" d="M303,179a18.05,18.05,0,0,1-8.62,14.4c-3.22,2-9.82,5-15.32,7.34-24.34,10.42-53,.57-64.79-23.13-.27-.53-.52-1.06-.77-1.6h0l6.27-2.28h0a34.65,34.65,0,0,0,44.32,9.9l16.18-8.73a39.8,39.8,0,0,1,9.15-3.61C299.16,168.86,303.27,171.84,303,179Z" transform="translate(-60.22 -41.5)"/><path class="cls-86" d="M213.42,176a16.29,16.29,0,0,0-1.58-3.08c-1.26-1.9-3.25-5.89.17-8.49s6.25-3.76,7.27-2.06a4.74,4.74,0,0,1,.5,4.23l1.52,2.3a1.85,1.85,0,0,1-.37,2.44,6.83,6.83,0,0,1-2,1.11l.84,1.28-6.29,2.32Z" transform="translate(-60.22 -41.5)"/><rect class="cls-95" x="240.38" y="226.73" width="12.25" height="79.38"/><path class="cls-96" d="M333.47,352.74H280a10.27,10.27,0,0,1,10.27-10.27h33a10.26,10.26,0,0,1,10.26,10.27Z" transform="translate(-60.22 -41.5)"/><rect class="cls-97" x="285.55" y="228.38" width="5.24" height="25.78" transform="translate(516.12 441.04) rotate(180)"/><path class="cls-98" d="M325.17,231.33H280.08a4.05,4.05,0,0,1-4.05-4.05h0a4.05,4.05,0,0,1,4.05-4h45.09Z" transform="translate(-60.22 -41.5)"/><path class="cls-99" d="M290.81,244.14h8.39a11.94,11.94,0,0,0,11.91-11l-2-26.09A28.89,28.89,0,0,1,337.89,176h0a28.88,28.88,0,0,1,28.29,34.7c-5.34,25.94-13.42,57.51-21.68,61a35.37,35.37,0,0,1-13.79,2.78H269.92a4.7,4.7,0,0,1-4.71-4.7h0A25.59,25.59,0,0,1,290.81,244.14Z" transform="translate(-60.22 -41.5)"/></g></g></svg>